<mxfile host="www.draw.io" modified="2020-01-29T14:01:07.448Z" agent="Mozilla/5.0 (Windows NT 10.0; Win64; x64) AppleWebKit/537.36 (KHTML, like Gecko) Chrome/79.0.3945.117 Safari/537.36" etag="CilPNXqgwGjXIvgKXb8r" version="12.6.1" type="github">
  <diagram id="feYRD5byYo0tL7xXqBnJ" name="Page-1">
    <mxGraphModel dx="1408" dy="748" grid="1" gridSize="10" guides="1" tooltips="1" connect="1" arrows="1" fold="1" page="1" pageScale="1" pageWidth="827" pageHeight="1169" math="0" shadow="0">
      <root>
        <mxCell id="0"/>
        <mxCell id="1" parent="0"/>
        <mxCell id="4ikhPjmQFLZL6pyKQRip-1" value="" style="html=1;whiteSpace=wrap;shape=mxgraph.aws3.rds_db_instance;labelPosition=center;verticalLabelPosition=bottom;align=center;verticalAlign=top;fontSize=11;spacing=5;strokeOpacity=100;fillColor=#2e73b8;strokeWidth=1.2;" parent="1" vertex="1">
          <mxGeometry x="416" y="703" width="55" height="72" as="geometry"/>
        </mxCell>
        <mxCell id="4ikhPjmQFLZL6pyKQRip-2" value="AWS Lambda" style="html=1;whiteSpace=wrap;shape=mxgraph.aws4.resourceIcon;resIcon=mxgraph.aws4.lambda;verticalLabelPosition=bottom;align=center;verticalAlign=top;strokeColor=#ffffff;fontSize=11;spacing=0;strokeOpacity=100;fillColor=#d86613;strokeWidth=1.2;" parent="1" vertex="1">
          <mxGeometry x="96" y="552" width="72" height="72" as="geometry"/>
        </mxCell>
        <mxCell id="4ikhPjmQFLZL6pyKQRip-3" value="Site Service" style="html=1;whiteSpace=wrap;shape=mxgraph.aws4.lambda_function;verticalLabelPosition=bottom;align=center;verticalAlign=top;strokeColor=none;fontSize=11;spacing=0;strokeOpacity=100;fillColor=#d86613;strokeWidth=1.2;" parent="1" vertex="1">
          <mxGeometry x="276" y="564" width="48" height="48" as="geometry"/>
        </mxCell>
        <mxCell id="4ikhPjmQFLZL6pyKQRip-4" value="Asset Service" style="html=1;whiteSpace=wrap;shape=mxgraph.aws4.lambda_function;verticalLabelPosition=bottom;align=center;verticalAlign=top;strokeColor=none;fontSize=11;spacing=0;strokeOpacity=100;fillColor=#d86613;strokeWidth=1.2;" parent="1" vertex="1">
          <mxGeometry x="420" y="564" width="48" height="48" as="geometry"/>
        </mxCell>
        <mxCell id="4ikhPjmQFLZL6pyKQRip-5" value="Lease Service" style="html=1;whiteSpace=wrap;shape=mxgraph.aws4.lambda_function;verticalLabelPosition=bottom;align=center;verticalAlign=top;strokeColor=none;fontSize=11;spacing=0;strokeOpacity=100;fillColor=#d86613;strokeWidth=1.2;" parent="1" vertex="1">
          <mxGeometry x="564" y="564" width="48" height="48" as="geometry"/>
        </mxCell>
        <mxCell id="4ikhPjmQFLZL6pyKQRip-6" value="Site API" style="html=1;whiteSpace=wrap;shape=mxgraph.aws4.resourceIcon;resIcon=mxgraph.aws4.api_gateway;labelPosition=center;verticalLabelPosition=bottom;align=center;verticalAlign=top;strokeColor=#ffffff;fontSize=11;spacing=0;strokeOpacity=100;fillColor=#693cc5;strokeWidth=1.2;" parent="1" vertex="1">
          <mxGeometry x="276" y="456" width="48" height="48" as="geometry"/>
        </mxCell>
        <mxCell id="4ikhPjmQFLZL6pyKQRip-7" value="Asset API" style="html=1;whiteSpace=wrap;shape=mxgraph.aws4.resourceIcon;resIcon=mxgraph.aws4.api_gateway;labelPosition=center;verticalLabelPosition=bottom;align=center;verticalAlign=top;strokeColor=#ffffff;fontSize=11;spacing=0;strokeOpacity=100;fillColor=#693cc5;strokeWidth=1.2;" parent="1" vertex="1">
          <mxGeometry x="420" y="456" width="48" height="48" as="geometry"/>
        </mxCell>
        <mxCell id="4ikhPjmQFLZL6pyKQRip-8" value="Lease API" style="html=1;whiteSpace=wrap;shape=mxgraph.aws4.resourceIcon;resIcon=mxgraph.aws4.api_gateway;labelPosition=center;verticalLabelPosition=bottom;align=center;verticalAlign=top;strokeColor=#ffffff;fontSize=11;spacing=0;strokeOpacity=100;fillColor=#693cc5;strokeWidth=1.2;" parent="1" vertex="1">
          <mxGeometry x="564" y="456" width="48" height="48" as="geometry"/>
        </mxCell>
        <mxCell id="4ikhPjmQFLZL6pyKQRip-9" value="Amazon ECS" style="html=1;whiteSpace=wrap;shape=mxgraph.aws3.ecs;labelPosition=center;verticalLabelPosition=bottom;align=center;verticalAlign=top;fontSize=11;spacing=5;strokeOpacity=100;fillColor=#f58536;strokeWidth=1.2;" parent="1" vertex="1">
          <mxGeometry x="102" y="204" width="72" height="79" as="geometry"/>
        </mxCell>
        <mxCell id="4ikhPjmQFLZL6pyKQRip-10" value="" style="html=1;jettySize=18;fontSize=11;strokeOpacity=100;strokeWidth=1.2;rounded=1;arcSize=0;edgeStyle=orthogonalEdgeStyle;startArrow=none;endArrow=block;endFill=1;exitX=0.5;exitY=1;exitPerimeter=1;entryX=7.723290606088045e-17;entryY=0.5;entryPerimeter=1;" parent="1" source="4ikhPjmQFLZL6pyKQRip-3" target="4ikhPjmQFLZL6pyKQRip-1" edge="1">
          <mxGeometry width="100" height="100" relative="1" as="geometry"/>
        </mxCell>
        <mxCell id="4ikhPjmQFLZL6pyKQRip-11" value="" style="html=1;jettySize=18;fontSize=11;strokeOpacity=100;strokeWidth=1.2;rounded=1;arcSize=0;edgeStyle=orthogonalEdgeStyle;startArrow=none;endArrow=block;endFill=1;exitX=0.5;exitY=1;exitPerimeter=1;entryX=0.5;entryY=0.0000019947747602463056;entryPerimeter=1;" parent="1" source="4ikhPjmQFLZL6pyKQRip-4" target="4ikhPjmQFLZL6pyKQRip-1" edge="1">
          <mxGeometry width="100" height="100" relative="1" as="geometry"/>
        </mxCell>
        <mxCell id="4ikhPjmQFLZL6pyKQRip-12" value="" style="html=1;jettySize=18;fontSize=11;strokeOpacity=100;strokeWidth=1.2;rounded=1;arcSize=0;edgeStyle=orthogonalEdgeStyle;startArrow=none;endArrow=block;endFill=1;exitX=0.5;exitY=1;exitPerimeter=1;entryX=0.9999000000000001;entryY=0.5;entryPerimeter=1;" parent="1" source="4ikhPjmQFLZL6pyKQRip-5" target="4ikhPjmQFLZL6pyKQRip-1" edge="1">
          <mxGeometry width="100" height="100" relative="1" as="geometry"/>
        </mxCell>
        <mxCell id="4ikhPjmQFLZL6pyKQRip-13" value="" style="html=1;jettySize=18;fontSize=11;strokeOpacity=100;strokeWidth=1.2;rounded=1;arcSize=0;edgeStyle=orthogonalEdgeStyle;startArrow=none;endArrow=block;endFill=1;exitX=0.5;exitY=1;exitPerimeter=1;entryX=0.5;entryY=0;entryPerimeter=1;" parent="1" source="4ikhPjmQFLZL6pyKQRip-8" target="4ikhPjmQFLZL6pyKQRip-5" edge="1">
          <mxGeometry width="100" height="100" relative="1" as="geometry"/>
        </mxCell>
        <mxCell id="4ikhPjmQFLZL6pyKQRip-14" value="" style="html=1;jettySize=18;fontSize=11;strokeOpacity=100;strokeWidth=1.2;rounded=1;arcSize=0;edgeStyle=orthogonalEdgeStyle;startArrow=none;endArrow=block;endFill=1;exitX=0.5;exitY=1;exitPerimeter=1;entryX=0.5;entryY=0;entryPerimeter=1;" parent="1" source="4ikhPjmQFLZL6pyKQRip-7" target="4ikhPjmQFLZL6pyKQRip-4" edge="1">
          <mxGeometry width="100" height="100" relative="1" as="geometry"/>
        </mxCell>
        <mxCell id="4ikhPjmQFLZL6pyKQRip-15" value="" style="html=1;jettySize=18;fontSize=11;strokeOpacity=100;strokeWidth=1.2;rounded=1;arcSize=0;edgeStyle=orthogonalEdgeStyle;startArrow=none;endArrow=block;endFill=1;exitX=0.5;exitY=1;exitPerimeter=1;entryX=0.5;entryY=0;entryPerimeter=1;" parent="1" source="4ikhPjmQFLZL6pyKQRip-6" target="4ikhPjmQFLZL6pyKQRip-3" edge="1">
          <mxGeometry width="100" height="100" relative="1" as="geometry"/>
        </mxCell>
        <mxCell id="4ikhPjmQFLZL6pyKQRip-16" value="" style="html=1;whiteSpace=wrap;shape=mxgraph.aws4.resourceIcon;resIcon=mxgraph.aws4.api_gateway;labelPosition=center;verticalLabelPosition=bottom;align=center;verticalAlign=top;strokeColor=#ffffff;fontSize=11;spacing=0;strokeOpacity=100;fillColor=#693cc5;strokeWidth=1.2;" parent="1" vertex="1">
          <mxGeometry x="348" y="352" width="48" height="48" as="geometry"/>
        </mxCell>
        <mxCell id="4ikhPjmQFLZL6pyKQRip-17" value="" style="html=1;whiteSpace=wrap;shape=mxgraph.aws4.resourceIcon;resIcon=mxgraph.aws4.api_gateway;labelPosition=center;verticalLabelPosition=bottom;align=center;verticalAlign=top;strokeColor=#ffffff;fontSize=11;spacing=0;strokeOpacity=100;fillColor=#693cc5;strokeWidth=1.2;" parent="1" vertex="1">
          <mxGeometry x="492" y="352" width="48" height="48" as="geometry"/>
        </mxCell>
        <mxCell id="4ikhPjmQFLZL6pyKQRip-18" value="" style="html=1;jettySize=18;fontSize=11;strokeOpacity=100;strokeWidth=1.2;rounded=1;arcSize=0;edgeStyle=orthogonalEdgeStyle;startArrow=none;endArrow=block;endFill=1;exitX=0.5;exitY=1;exitPerimeter=1;entryX=0.575;entryY=0;entryPerimeter=1;" parent="1" source="4ikhPjmQFLZL6pyKQRip-16" target="4ikhPjmQFLZL6pyKQRip-6" edge="1">
          <mxGeometry width="100" height="100" relative="1" as="geometry"/>
        </mxCell>
        <mxCell id="4ikhPjmQFLZL6pyKQRip-19" value="" style="html=1;jettySize=18;fontSize=11;strokeOpacity=100;strokeWidth=1.2;rounded=1;arcSize=0;edgeStyle=orthogonalEdgeStyle;startArrow=none;endArrow=block;endFill=1;exitX=0.5;exitY=1;exitPerimeter=1;entryX=0.5;entryY=0;entryPerimeter=1;" parent="1" source="4ikhPjmQFLZL6pyKQRip-16" target="4ikhPjmQFLZL6pyKQRip-7" edge="1">
          <mxGeometry width="100" height="100" relative="1" as="geometry"/>
        </mxCell>
        <mxCell id="4ikhPjmQFLZL6pyKQRip-20" value="" style="html=1;jettySize=18;fontSize=11;strokeOpacity=100;strokeWidth=1.2;rounded=1;arcSize=0;edgeStyle=orthogonalEdgeStyle;startArrow=none;endArrow=block;endFill=1;exitX=0.5;exitY=1;exitPerimeter=1;entryX=0.8166666666666671;entryY=0;entryPerimeter=1;" parent="1" source="4ikhPjmQFLZL6pyKQRip-17" target="4ikhPjmQFLZL6pyKQRip-7" edge="1">
          <mxGeometry width="100" height="100" relative="1" as="geometry"/>
        </mxCell>
        <mxCell id="4ikhPjmQFLZL6pyKQRip-21" value="" style="html=1;jettySize=18;fontSize=11;strokeOpacity=100;strokeWidth=1.2;rounded=1;arcSize=0;edgeStyle=orthogonalEdgeStyle;startArrow=none;endArrow=block;endFill=1;exitX=0.5;exitY=1;exitPerimeter=1;entryX=0.5;entryY=0;entryPerimeter=1;" parent="1" source="4ikhPjmQFLZL6pyKQRip-17" target="4ikhPjmQFLZL6pyKQRip-8" edge="1">
          <mxGeometry width="100" height="100" relative="1" as="geometry"/>
        </mxCell>
        <mxCell id="4ikhPjmQFLZL6pyKQRip-22" value="" style="html=1;whiteSpace=wrap;fillColor=none;container=1;fontSize=11;spacing=0;strokeOpacity=100;fillOpacity=0;strokeWidth=0.6;" parent="1" vertex="1">
          <mxGeometry x="72" y="540" width="576" height="108" as="geometry"/>
        </mxCell>
        <mxCell id="4ikhPjmQFLZL6pyKQRip-23" value="" style="html=1;whiteSpace=wrap;fillColor=none;container=1;fontSize=11;spacing=0;strokeOpacity=100;fillOpacity=0;strokeWidth=0.6;" parent="1" vertex="1">
          <mxGeometry x="72" y="336" width="576" height="192" as="geometry"/>
        </mxCell>
        <mxCell id="4ikhPjmQFLZL6pyKQRip-24" value="Amazon API Gateway" style="html=1;whiteSpace=wrap;shape=mxgraph.aws3.api_gateway;labelPosition=center;verticalLabelPosition=bottom;align=center;verticalAlign=top;fontSize=11;spacing=5;strokeOpacity=100;fillColor=#d9a741;strokeWidth=1.2;" parent="1" vertex="1">
          <mxGeometry x="102" y="382" width="59" height="84" as="geometry"/>
        </mxCell>
        <mxCell id="4ikhPjmQFLZL6pyKQRip-25" value="" style="html=1;whiteSpace=wrap;fillColor=none;container=1;fontSize=11;spacing=0;strokeOpacity=100;fillOpacity=0;strokeWidth=0.6;" parent="1" vertex="1">
          <mxGeometry x="72" y="180" width="576" height="144" as="geometry">
            <mxRectangle x="72" y="180" width="50" height="40" as="alternateBounds"/>
          </mxGeometry>
        </mxCell>
        <mxCell id="HlEEmLIjn2SB2F-1_UKW-1" value="" style="aspect=fixed;html=1;points=[];align=center;image;fontSize=12;image=img/lib/mscae/CustomDomain.svg;" vertex="1" parent="4ikhPjmQFLZL6pyKQRip-25">
          <mxGeometry x="328" y="20" width="76.79" height="64.5" as="geometry"/>
        </mxCell>
        <mxCell id="4ikhPjmQFLZL6pyKQRip-26" value="" style="html=1;jettySize=18;fontSize=11;strokeOpacity=100;strokeWidth=1.2;rounded=1;arcSize=0;edgeStyle=orthogonalEdgeStyle;startArrow=none;endArrow=block;endFill=1;entryX=0.5;entryY=0;entryPerimeter=1;" parent="1" target="4ikhPjmQFLZL6pyKQRip-16" edge="1">
          <mxGeometry width="100" height="100" relative="1" as="geometry">
            <mxPoint x="438" y="265" as="sourcePoint"/>
            <Array as="points">
              <mxPoint x="438" y="265"/>
              <mxPoint x="438" y="308"/>
              <mxPoint x="372" y="308"/>
            </Array>
          </mxGeometry>
        </mxCell>
        <mxCell id="4ikhPjmQFLZL6pyKQRip-27" value="" style="html=1;jettySize=18;fontSize=11;strokeOpacity=100;strokeWidth=1.2;rounded=1;arcSize=0;edgeStyle=orthogonalEdgeStyle;startArrow=none;endArrow=block;endFill=1;entryX=0.5;entryY=0;entryPerimeter=1;exitX=0.495;exitY=1.008;exitDx=0;exitDy=0;exitPerimeter=0;" parent="1" source="HlEEmLIjn2SB2F-1_UKW-1" target="4ikhPjmQFLZL6pyKQRip-17" edge="1">
          <mxGeometry width="100" height="100" relative="1" as="geometry">
            <mxPoint x="445.535281972441" y="274" as="sourcePoint"/>
          </mxGeometry>
        </mxCell>
        <mxCell id="4ikhPjmQFLZL6pyKQRip-28" value="Amazon Cognito" style="html=1;whiteSpace=wrap;shape=mxgraph.aws3.cognito;labelPosition=center;verticalLabelPosition=bottom;align=center;verticalAlign=top;fontSize=11;spacing=5;strokeOpacity=100;fillColor=#ad688b;strokeWidth=1.2;" parent="1" vertex="1">
          <mxGeometry x="265" y="80" width="59" height="76" as="geometry"/>
        </mxCell>
        <mxCell id="4ikhPjmQFLZL6pyKQRip-29" value="IAM" style="html=1;whiteSpace=wrap;shape=mxgraph.aws3.iam;labelPosition=center;verticalLabelPosition=bottom;align=center;verticalAlign=top;fontSize=11;spacing=5;strokeOpacity=100;fillColor=#759c3e;strokeWidth=1.2;" parent="1" vertex="1">
          <mxGeometry x="336" y="80" width="38" height="76" as="geometry"/>
        </mxCell>
        <mxCell id="4ikhPjmQFLZL6pyKQRip-30" value="users" style="html=1;whiteSpace=wrap;shape=mxgraph.aws3.users;labelPosition=center;verticalLabelPosition=bottom;align=center;verticalAlign=top;fontSize=11;spacing=5;strokeOpacity=100;fillColor=#d2d3d3;strokeWidth=1.2;" parent="1" vertex="1">
          <mxGeometry x="564" y="62" width="72" height="81" as="geometry"/>
        </mxCell>
        <mxCell id="4ikhPjmQFLZL6pyKQRip-31" value="" style="html=1;jettySize=18;fontSize=11;strokeOpacity=100;strokeWidth=1.2;rounded=1;arcSize=0;edgeStyle=orthogonalEdgeStyle;startArrow=none;endArrow=block;endFill=1;exitX=-5.921189464667501e-17;exitY=0.5;exitPerimeter=1;" parent="1" source="4ikhPjmQFLZL6pyKQRip-30" edge="1">
          <mxGeometry width="100" height="100" relative="1" as="geometry">
            <mxPoint x="384" y="102" as="targetPoint"/>
          </mxGeometry>
        </mxCell>
        <mxCell id="4ikhPjmQFLZL6pyKQRip-32" value="Amazon SWF" style="html=1;whiteSpace=wrap;shape=mxgraph.aws3.swf;labelPosition=center;verticalLabelPosition=bottom;align=center;verticalAlign=top;fontSize=11;spacing=5;strokeOpacity=100;fillColor=#d9a741;strokeWidth=1.2;" parent="1" vertex="1">
          <mxGeometry x="696" y="200" width="59" height="76" as="geometry"/>
        </mxCell>
        <mxCell id="4ikhPjmQFLZL6pyKQRip-33" value="" style="html=1;jettySize=18;fontSize=11;strokeOpacity=100;strokeWidth=1.2;rounded=1;arcSize=0;startArrow=none;endArrow=block;endFill=1;entryX=0;entryY=0.42030819437272027;entryPerimeter=1;" parent="1" target="4ikhPjmQFLZL6pyKQRip-32" edge="1">
          <mxGeometry width="100" height="100" relative="1" as="geometry">
            <mxPoint x="480" y="232" as="sourcePoint"/>
          </mxGeometry>
        </mxCell>
        <mxCell id="4ikhPjmQFLZL6pyKQRip-34" value="" style="html=1;jettySize=18;fontSize=11;strokeOpacity=100;strokeWidth=1.2;rounded=1;arcSize=0;edgeStyle=orthogonalEdgeStyle;startArrow=none;endArrow=block;endFill=1;exitX=0.5;exitY=0.8571428571428571;exitPerimeter=1;entryX=1;entryY=0.5;entryPerimeter=1;" parent="1" source="4ikhPjmQFLZL6pyKQRip-32" target="4ikhPjmQFLZL6pyKQRip-17" edge="1">
          <mxGeometry width="100" height="100" relative="1" as="geometry"/>
        </mxCell>
        <mxCell id="4ikhPjmQFLZL6pyKQRip-35" value="" style="html=1;jettySize=18;fontSize=11;strokeOpacity=100;strokeWidth=1.2;rounded=1;arcSize=0;edgeStyle=orthogonalEdgeStyle;startArrow=none;endArrow=block;endFill=1;exitX=0.5;exitY=0.8571428571428571;exitPerimeter=1;entryX=1;entryY=0.5;entryPerimeter=1;" parent="1" source="4ikhPjmQFLZL6pyKQRip-32" target="4ikhPjmQFLZL6pyKQRip-8" edge="1">
          <mxGeometry width="100" height="100" relative="1" as="geometry"/>
        </mxCell>
        <mxCell id="4ikhPjmQFLZL6pyKQRip-37" value="" style="html=1;jettySize=18;fontSize=11;strokeOpacity=100;strokeWidth=1.2;rounded=1;arcSize=0;edgeStyle=orthogonalEdgeStyle;startArrow=none;endArrow=block;endFill=1;exitX=7.177199351112124e-17;exitY=0.5;exitPerimeter=1;entryX=0;entryY=0.574;entryPerimeter=0;entryDx=0;entryDy=0;" parent="1" source="4ikhPjmQFLZL6pyKQRip-28" target="HlEEmLIjn2SB2F-1_UKW-1" edge="1">
          <mxGeometry width="100" height="100" relative="1" as="geometry">
            <mxPoint x="387" y="236.4491513862788" as="targetPoint"/>
          </mxGeometry>
        </mxCell>
        <mxCell id="4ikhPjmQFLZL6pyKQRip-38" value="bucket with objects" style="html=1;whiteSpace=wrap;shape=mxgraph.aws3.bucket_with_objects;labelPosition=center;verticalLabelPosition=bottom;align=center;verticalAlign=top;fontSize=11;spacing=5;strokeOpacity=100;fillColor=#e05243;strokeWidth=1.2;" parent="1" vertex="1">
          <mxGeometry x="205" y="700" width="60" height="60" as="geometry"/>
        </mxCell>
        <mxCell id="4ikhPjmQFLZL6pyKQRip-39" value="" style="html=1;jettySize=18;fontSize=11;strokeOpacity=100;strokeWidth=1.2;rounded=1;arcSize=0;edgeStyle=orthogonalEdgeStyle;startArrow=none;endArrow=block;endFill=1;exitX=0.5;exitY=1;exitPerimeter=1;entryX=0.5;entryY=-1.0931426704001542e-16;entryPerimeter=1;" parent="1" source="4ikhPjmQFLZL6pyKQRip-3" target="4ikhPjmQFLZL6pyKQRip-38" edge="1">
          <mxGeometry width="100" height="100" relative="1" as="geometry"/>
        </mxCell>
        <mxCell id="4ikhPjmQFLZL6pyKQRip-40" value="" style="html=1;jettySize=18;fontSize=11;strokeOpacity=100;strokeWidth=1.2;rounded=1;arcSize=0;edgeStyle=orthogonalEdgeStyle;startArrow=none;endArrow=block;endFill=1;exitX=0.5;exitY=1;exitPerimeter=1;entryX=0.1781458909307686;entryY=0.0233298250536986;entryPerimeter=1;" parent="1" source="4ikhPjmQFLZL6pyKQRip-4" target="4ikhPjmQFLZL6pyKQRip-38" edge="1">
          <mxGeometry width="100" height="100" relative="1" as="geometry"/>
        </mxCell>
        <mxCell id="4ikhPjmQFLZL6pyKQRip-41" value="" style="html=1;jettySize=18;fontSize=11;strokeOpacity=100;strokeWidth=1.2;rounded=1;arcSize=0;edgeStyle=orthogonalEdgeStyle;startArrow=none;endArrow=block;endFill=1;exitX=0.5;exitY=1;exitPerimeter=1;entryX=0.8061536147476386;entryY=0.020496328116548147;entryPerimeter=1;" parent="1" source="4ikhPjmQFLZL6pyKQRip-5" target="4ikhPjmQFLZL6pyKQRip-38" edge="1">
          <mxGeometry width="100" height="100" relative="1" as="geometry"/>
        </mxCell>
      </root>
    </mxGraphModel>
  </diagram>
</mxfile>
